<svg xmlns="http://www.w3.org/2000/svg" viewBox="0 0 1000 625" font-family="Helvetica, Arial, sans-serif" role="img" aria-label="Map of community-bank density across the United States">
<rect width="1000" height="625" fill="#f6f8fc"/>
<text x="500.0" y="52" text-anchor="middle" fill="#131A40" font-size="27" font-weight="700" letter-spacing="0.5">Community banks across the United States</text>
<text x="500.0" y="78" text-anchor="middle" fill="#8c93a3" font-size="14.5" letter-spacing="2.4">SERVING LOCAL COMMUNITIES IN ALL 50 STATES</text>
<rect x="179.0" y="96" width="52" height="52" rx="6" fill="#d9e6f7"/>
<text x="205.0" y="128.0" text-anchor="middle" fill="#22305a" font-size="17" font-weight="600">AK</text>
<rect x="769.0" y="96" width="52" height="52" rx="6" fill="#d9e6f7"/>
<text x="795.0" y="128.0" text-anchor="middle" fill="#22305a" font-size="17" font-weight="600">ME</text>
<rect x="179.0" y="155" width="52" height="52" rx="6" fill="#aac6ec"/>
<text x="205.0" y="187.0" text-anchor="middle" fill="#22305a" font-size="17" font-weight="600">WA</text>
<rect x="238.0" y="155" width="52" height="52" rx="6" fill="#aac6ec"/>
<text x="264.0" y="187.0" text-anchor="middle" fill="#22305a" font-size="17" font-weight="600">ID</text>
<rect x="297.0" y="155" width="52" height="52" rx="6" fill="#6e9ed9"/>
<text x="323.0" y="187.0" text-anchor="middle" fill="#ffffff" font-size="17" font-weight="600">MT</text>
<rect x="356.0" y="155" width="52" height="52" rx="6" fill="#3d6cbb"/>
<text x="382.0" y="187.0" text-anchor="middle" fill="#ffffff" font-size="17" font-weight="600">ND</text>
<rect x="415.0" y="155" width="52" height="52" rx="6" fill="#214a91"/>
<text x="441.0" y="187.0" text-anchor="middle" fill="#ffffff" font-size="17" font-weight="600">MN</text>
<rect x="474.0" y="155" width="52" height="52" rx="6" fill="#3d6cbb"/>
<text x="500.0" y="187.0" text-anchor="middle" fill="#ffffff" font-size="17" font-weight="600">WI</text>
<rect x="592.0" y="155" width="52" height="52" rx="6" fill="#6e9ed9"/>
<text x="618.0" y="187.0" text-anchor="middle" fill="#ffffff" font-size="17" font-weight="600">MI</text>
<rect x="651.0" y="155" width="52" height="52" rx="6" fill="#6e9ed9"/>
<text x="677.0" y="187.0" text-anchor="middle" fill="#ffffff" font-size="17" font-weight="600">NY</text>
<rect x="710.0" y="155" width="52" height="52" rx="6" fill="#d9e6f7"/>
<text x="736.0" y="187.0" text-anchor="middle" fill="#22305a" font-size="17" font-weight="600">VT</text>
<rect x="769.0" y="155" width="52" height="52" rx="6" fill="#d9e6f7"/>
<text x="795.0" y="187.0" text-anchor="middle" fill="#22305a" font-size="17" font-weight="600">NH</text>
<rect x="179.0" y="214" width="52" height="52" rx="6" fill="#aac6ec"/>
<text x="205.0" y="246.0" text-anchor="middle" fill="#22305a" font-size="17" font-weight="600">OR</text>
<rect x="238.0" y="214" width="52" height="52" rx="6" fill="#d9e6f7"/>
<text x="264.0" y="246.0" text-anchor="middle" fill="#22305a" font-size="17" font-weight="600">NV</text>
<rect x="297.0" y="214" width="52" height="52" rx="6" fill="#aac6ec"/>
<text x="323.0" y="246.0" text-anchor="middle" fill="#22305a" font-size="17" font-weight="600">WY</text>
<rect x="356.0" y="214" width="52" height="52" rx="6" fill="#3d6cbb"/>
<text x="382.0" y="246.0" text-anchor="middle" fill="#ffffff" font-size="17" font-weight="600">SD</text>
<rect x="415.0" y="214" width="52" height="52" rx="6" fill="#214a91"/>
<text x="441.0" y="246.0" text-anchor="middle" fill="#ffffff" font-size="17" font-weight="600">IA</text>
<rect x="474.0" y="214" width="52" height="52" rx="6" fill="#214a91"/>
<text x="500.0" y="246.0" text-anchor="middle" fill="#ffffff" font-size="17" font-weight="600">IL</text>
<rect x="533.0" y="214" width="52" height="52" rx="6" fill="#3d6cbb"/>
<text x="559.0" y="246.0" text-anchor="middle" fill="#ffffff" font-size="17" font-weight="600">IN</text>
<rect x="592.0" y="214" width="52" height="52" rx="6" fill="#3d6cbb"/>
<text x="618.0" y="246.0" text-anchor="middle" fill="#ffffff" font-size="17" font-weight="600">OH</text>
<rect x="651.0" y="214" width="52" height="52" rx="6" fill="#3d6cbb"/>
<text x="677.0" y="246.0" text-anchor="middle" fill="#ffffff" font-size="17" font-weight="600">PA</text>
<rect x="710.0" y="214" width="52" height="52" rx="6" fill="#aac6ec"/>
<text x="736.0" y="246.0" text-anchor="middle" fill="#22305a" font-size="17" font-weight="600">NJ</text>
<rect x="769.0" y="214" width="52" height="52" rx="6" fill="#aac6ec"/>
<text x="795.0" y="246.0" text-anchor="middle" fill="#22305a" font-size="17" font-weight="600">MA</text>
<rect x="179.0" y="273" width="52" height="52" rx="6" fill="#aac6ec"/>
<text x="205.0" y="305.0" text-anchor="middle" fill="#22305a" font-size="17" font-weight="600">CA</text>
<rect x="238.0" y="273" width="52" height="52" rx="6" fill="#d9e6f7"/>
<text x="264.0" y="305.0" text-anchor="middle" fill="#22305a" font-size="17" font-weight="600">UT</text>
<rect x="297.0" y="273" width="52" height="52" rx="6" fill="#6e9ed9"/>
<text x="323.0" y="305.0" text-anchor="middle" fill="#ffffff" font-size="17" font-weight="600">CO</text>
<rect x="356.0" y="273" width="52" height="52" rx="6" fill="#214a91"/>
<text x="382.0" y="305.0" text-anchor="middle" fill="#ffffff" font-size="17" font-weight="600">NE</text>
<rect x="415.0" y="273" width="52" height="52" rx="6" fill="#214a91"/>
<text x="441.0" y="305.0" text-anchor="middle" fill="#ffffff" font-size="17" font-weight="600">MO</text>
<rect x="474.0" y="273" width="52" height="52" rx="6" fill="#3d6cbb"/>
<text x="500.0" y="305.0" text-anchor="middle" fill="#ffffff" font-size="17" font-weight="600">KY</text>
<rect x="533.0" y="273" width="52" height="52" rx="6" fill="#aac6ec"/>
<text x="559.0" y="305.0" text-anchor="middle" fill="#22305a" font-size="17" font-weight="600">WV</text>
<rect x="592.0" y="273" width="52" height="52" rx="6" fill="#6e9ed9"/>
<text x="618.0" y="305.0" text-anchor="middle" fill="#ffffff" font-size="17" font-weight="600">VA</text>
<rect x="651.0" y="273" width="52" height="52" rx="6" fill="#aac6ec"/>
<text x="677.0" y="305.0" text-anchor="middle" fill="#22305a" font-size="17" font-weight="600">MD</text>
<rect x="710.0" y="273" width="52" height="52" rx="6" fill="#d9e6f7"/>
<text x="736.0" y="305.0" text-anchor="middle" fill="#22305a" font-size="17" font-weight="600">DE</text>
<rect x="769.0" y="273" width="52" height="52" rx="6" fill="#d9e6f7"/>
<text x="795.0" y="305.0" text-anchor="middle" fill="#22305a" font-size="17" font-weight="600">CT</text>
<rect x="179.0" y="332" width="52" height="52" rx="6" fill="#d9e6f7"/>
<text x="205.0" y="364.0" text-anchor="middle" fill="#22305a" font-size="17" font-weight="600">HI</text>
<rect x="238.0" y="332" width="52" height="52" rx="6" fill="#aac6ec"/>
<text x="264.0" y="364.0" text-anchor="middle" fill="#22305a" font-size="17" font-weight="600">AZ</text>
<rect x="297.0" y="332" width="52" height="52" rx="6" fill="#aac6ec"/>
<text x="323.0" y="364.0" text-anchor="middle" fill="#22305a" font-size="17" font-weight="600">NM</text>
<rect x="356.0" y="332" width="52" height="52" rx="6" fill="#214a91"/>
<text x="382.0" y="364.0" text-anchor="middle" fill="#ffffff" font-size="17" font-weight="600">KS</text>
<rect x="415.0" y="332" width="52" height="52" rx="6" fill="#3d6cbb"/>
<text x="441.0" y="364.0" text-anchor="middle" fill="#ffffff" font-size="17" font-weight="600">AR</text>
<rect x="474.0" y="332" width="52" height="52" rx="6" fill="#3d6cbb"/>
<text x="500.0" y="364.0" text-anchor="middle" fill="#ffffff" font-size="17" font-weight="600">TN</text>
<rect x="533.0" y="332" width="52" height="52" rx="6" fill="#3d6cbb"/>
<text x="559.0" y="364.0" text-anchor="middle" fill="#ffffff" font-size="17" font-weight="600">NC</text>
<rect x="592.0" y="332" width="52" height="52" rx="6" fill="#6e9ed9"/>
<text x="618.0" y="364.0" text-anchor="middle" fill="#ffffff" font-size="17" font-weight="600">SC</text>
<rect x="651.0" y="332" width="52" height="52" rx="6" fill="#d9e6f7"/>
<text x="677.0" y="364.0" text-anchor="middle" fill="#22305a" font-size="17" font-weight="600">DC</text>
<rect x="769.0" y="332" width="52" height="52" rx="6" fill="#d9e6f7"/>
<text x="795.0" y="364.0" text-anchor="middle" fill="#22305a" font-size="17" font-weight="600">RI</text>
<rect x="356.0" y="391" width="52" height="52" rx="6" fill="#214a91"/>
<text x="382.0" y="423.0" text-anchor="middle" fill="#ffffff" font-size="17" font-weight="600">OK</text>
<rect x="415.0" y="391" width="52" height="52" rx="6" fill="#6e9ed9"/>
<text x="441.0" y="423.0" text-anchor="middle" fill="#ffffff" font-size="17" font-weight="600">LA</text>
<rect x="474.0" y="391" width="52" height="52" rx="6" fill="#3d6cbb"/>
<text x="500.0" y="423.0" text-anchor="middle" fill="#ffffff" font-size="17" font-weight="600">MS</text>
<rect x="533.0" y="391" width="52" height="52" rx="6" fill="#3d6cbb"/>
<text x="559.0" y="423.0" text-anchor="middle" fill="#ffffff" font-size="17" font-weight="600">AL</text>
<rect x="592.0" y="391" width="52" height="52" rx="6" fill="#3d6cbb"/>
<text x="618.0" y="423.0" text-anchor="middle" fill="#ffffff" font-size="17" font-weight="600">GA</text>
<rect x="356.0" y="450" width="52" height="52" rx="6" fill="#214a91"/>
<text x="382.0" y="482.0" text-anchor="middle" fill="#ffffff" font-size="17" font-weight="600">TX</text>
<rect x="592.0" y="450" width="52" height="52" rx="6" fill="#6e9ed9"/>
<text x="618.0" y="482.0" text-anchor="middle" fill="#ffffff" font-size="17" font-weight="600">FL</text>
<text x="336.0" y="605" text-anchor="end" fill="#4a5366" font-size="14">Fewer</text>
<rect x="350.0" y="591" width="22" height="22" rx="4" fill="#d9e6f7"/>
<rect x="378.0" y="591" width="22" height="22" rx="4" fill="#aac6ec"/>
<rect x="406.0" y="591" width="22" height="22" rx="4" fill="#6e9ed9"/>
<rect x="434.0" y="591" width="22" height="22" rx="4" fill="#3d6cbb"/>
<rect x="462.0" y="591" width="22" height="22" rx="4" fill="#214a91"/>
<text x="496.0" y="605" fill="#4a5366" font-size="14">More</text>
<rect x="472.0" y="90" width="56" height="3" rx="1.5" fill="#F47A1F"/>
</svg>